<svg width="237" height="96" viewBox="0 0 237 96" fill="none" xmlns="http://www.w3.org/2000/svg">
<path d="M41.0106 28.9568C36.5584 28.9568 32.9492 32.566 32.9492 37.0182V62.3538C32.9492 62.7673 33.1709 63.1491 33.5301 63.3541C33.8892 63.559 34.3307 63.5557 34.6867 63.3453L43.8393 57.9369C45.6463 56.8692 47.891 56.8692 49.698 57.9369L58.8506 63.3453C59.2066 63.5557 59.6481 63.559 60.0072 63.3541C60.3664 63.1491 60.5881 62.7673 60.5881 62.3538V37.0182C60.5881 32.566 56.9789 28.9568 52.5268 28.9568H41.0106Z" fill="url(#paint0_linear_44_26)"/>
<g filter="url(#filter0_i_44_26)">
<path d="M74 26.3684V38.1579C74 38.5487 73.8447 38.9236 73.5684 39.1999C73.292 39.4763 72.9172 39.6316 72.5263 39.6316C72.1355 39.6316 71.7606 39.4763 71.4843 39.1999C71.2079 38.9236 71.0526 38.5487 71.0526 38.1579V26.3684C71.0513 25.1963 70.5851 24.0725 69.7563 23.2437C68.9275 22.4148 67.8037 21.9486 66.6316 21.9474H54.8421C54.4513 21.9474 54.0764 21.7921 53.8 21.5157C53.5237 21.2394 53.3684 20.8645 53.3684 20.4737C53.3684 20.0828 53.5237 19.708 53.8 19.4316C54.0764 19.1553 54.4513 19 54.8421 19H66.6316C68.5852 19.0018 70.4584 19.7787 71.8398 21.1602C73.2213 22.5416 73.9982 24.4147 74 26.3684ZM72.5263 54.3684C72.3328 54.3683 72.1411 54.4063 71.9622 54.4804C71.7834 54.5544 71.6209 54.6629 71.484 54.7998C71.3471 54.9367 71.2386 55.0992 71.1646 55.278C71.0906 55.4569 71.0525 55.6485 71.0526 55.8421V67.6316C71.0513 68.8037 70.5851 69.9275 69.7563 70.7563C68.9275 71.5851 67.8037 72.0513 66.6316 72.0526H54.8421C54.4513 72.0526 54.0764 72.2079 53.8 72.4843C53.5237 72.7606 53.3684 73.1355 53.3684 73.5263C53.3684 73.9172 53.5237 74.292 53.8 74.5684C54.0764 74.8447 54.4513 75 54.8421 75H66.6316C68.5852 74.9982 70.4584 74.2213 71.8398 72.8398C73.2213 71.4584 73.9982 69.5852 74 67.6316V55.8421C74.0001 55.6485 73.9621 55.4569 73.888 55.278C73.814 55.0992 73.7055 54.9367 73.5686 54.7998C73.4317 54.6629 73.2692 54.5544 73.0904 54.4804C72.9116 54.4063 72.7199 54.3683 72.5263 54.3684ZM18 67.6316C18.0018 69.5852 18.7787 71.4584 20.1602 72.8398C21.5416 74.2213 23.4147 74.9982 25.3684 75H37.1579C37.5487 75 37.9236 74.8447 38.1999 74.5684C38.4763 74.292 38.6316 73.9172 38.6316 73.5263C38.6316 73.1355 38.4763 72.7606 38.1999 72.4843C37.9236 72.2079 37.5487 72.0526 37.1579 72.0526H25.3684C24.1963 72.0513 23.0725 71.5851 22.2437 70.7563C21.4148 69.9275 20.9486 68.8037 20.9474 67.6316V55.8421C20.9474 55.4513 20.7921 55.0764 20.5157 54.8C20.2394 54.5237 19.8645 54.3684 19.4737 54.3684C19.0828 54.3684 18.708 54.5237 18.4316 54.8C18.1553 55.0764 18 55.4513 18 55.8421V67.6316ZM18 38.1579C18 38.5487 18.1553 38.9236 18.4316 39.1999C18.708 39.4763 19.0828 39.6316 19.4737 39.6316C19.8645 39.6316 20.2394 39.4763 20.5157 39.1999C20.7921 38.9236 20.9474 38.5487 20.9474 38.1579V26.3684C20.9486 25.1963 21.4148 24.0725 22.2437 23.2437C23.0725 22.4148 24.1963 21.9486 25.3684 21.9474H37.1579C37.5487 21.9474 37.9236 21.7921 38.1999 21.5157C38.4763 21.2394 38.6316 20.8645 38.6316 20.4737C38.6316 20.0828 38.4763 19.708 38.1999 19.4316C37.9236 19.1553 37.5487 19 37.1579 19H25.3684C23.4147 19.0018 21.5416 19.7787 20.1602 21.1602C18.7787 22.5416 18.0018 24.4147 18 26.3684V38.1579Z" fill="url(#paint1_linear_44_26)"/>
</g>
<path d="M197.301 35.5745C197.301 34.8553 197.597 34.2668 198.187 33.8092C198.777 33.2861 199.532 32.9265 200.45 32.7303C201.434 32.4688 202.549 32.3054 203.795 32.24C205.041 32.1092 206.32 32.0765 207.632 32.1419C208.813 29.7881 209.797 27.7613 210.584 26.0614C211.436 24.296 211.961 23.1518 212.158 22.6288C212.223 22.5634 212.387 22.5307 212.65 22.5307C213.634 22.5307 214.552 22.9557 215.405 23.8057C216.257 24.6556 216.684 25.5383 216.684 26.4536C216.684 26.8459 216.421 27.6632 215.896 28.9055C215.437 30.0824 214.847 31.5208 214.125 33.2207C215.634 33.5476 216.848 33.9072 217.766 34.2995C218.75 34.6918 219.242 35.0841 219.242 35.4764C219.242 35.8033 219.143 36.1629 218.946 36.5552C218.75 36.8821 218.487 36.9802 218.159 36.8494C217.569 36.7187 216.782 36.6206 215.798 36.5552C214.814 36.4245 213.765 36.3264 212.65 36.261C211.666 38.3532 210.649 40.5435 209.6 42.8319C208.55 45.1203 207.566 47.2452 206.648 49.2067C205.73 51.1682 204.976 52.8681 204.385 54.3065C203.795 55.6796 203.5 56.5622 203.5 56.9545C203.5 57.2814 203.565 57.5756 203.697 57.8372C203.828 58.0987 204.123 58.2295 204.582 58.2295C205.5 58.2295 206.583 57.543 207.829 56.1699C209.075 54.7969 210.813 52.3778 213.043 48.9125C213.24 48.651 213.535 48.6183 213.929 48.8144C214.322 49.0106 214.453 49.2721 214.322 49.599C213.798 50.7759 213.01 52.2143 211.961 53.9142C210.912 55.6142 209.731 57.2814 208.419 58.916C207.173 60.5505 205.828 61.9563 204.385 63.1332C202.942 64.2447 201.565 64.8004 200.253 64.8004C199.007 64.8004 197.925 64.4081 197.006 63.6235C196.088 62.8389 195.629 61.5967 195.629 59.8967C195.629 59.2429 195.924 58.0987 196.514 56.4641C197.105 54.8296 197.892 52.9335 198.876 50.7759C199.794 48.6183 200.843 46.2972 202.024 43.8127C203.205 41.2627 204.385 38.8109 205.566 36.4571C204.123 36.5879 202.778 36.8167 201.532 37.1437C200.351 37.4052 199.302 37.7975 198.384 38.3205C198.056 38.059 197.793 37.6667 197.597 37.1437C197.4 36.6206 197.301 36.0975 197.301 35.5745Z" fill="url(#paint2_linear_44_26)"/>
<path d="M184.127 54.5026C184.127 55.941 184.488 56.9218 185.209 57.4448C185.931 57.9679 186.751 58.2294 187.669 58.2294C189.177 58.2294 190.522 57.9679 191.703 57.4448C192.883 56.8564 193.933 56.1045 194.851 55.1891C195.835 54.2738 196.72 53.2604 197.508 52.1489C198.295 51.0374 199.082 49.9586 199.869 48.9124C200 48.7163 200.262 48.7163 200.656 48.9124C201.115 49.0432 201.279 49.272 201.148 49.599C200.361 51.2335 199.377 52.9661 198.196 54.7969C197.016 56.5622 195.704 58.1967 194.261 59.7005C192.818 61.2043 191.211 62.4466 189.44 63.4273C187.669 64.3427 185.8 64.8004 183.832 64.8004C182.651 64.8004 181.602 64.5715 180.683 64.1138C179.831 63.6562 179.109 63.0677 178.519 62.3485C177.929 61.6293 177.502 60.812 177.24 59.8967C176.912 58.9813 176.748 58.0333 176.748 57.0525C176.748 55.0911 177.207 53.0315 178.125 50.8739C178.978 48.6509 180.159 46.6241 181.667 44.7933C183.176 42.8973 184.914 41.3608 186.882 40.1839C188.915 38.9416 191.047 38.3205 193.277 38.3205C194.392 38.3205 195.376 38.6147 196.228 39.2032C197.147 39.7916 197.606 40.6416 197.606 41.7531C197.606 42.4723 197.442 43.1588 197.114 43.8126C196.852 44.4664 196.36 44.9241 195.638 45.1856C195.441 45.1856 195.31 45.0876 195.245 44.8914C195.245 44.6299 195.212 44.3684 195.146 44.1068C195.081 43.7799 194.949 43.5184 194.753 43.3222C194.556 43.0607 194.261 42.9299 193.867 42.9299C192.818 42.9299 191.703 43.3222 190.522 44.1068C189.341 44.8914 188.292 45.8722 187.374 47.049C186.455 48.2259 185.668 49.5009 185.012 50.8739C184.422 52.1816 184.127 53.3911 184.127 54.5026Z" fill="url(#paint3_linear_44_26)"/>
<path d="M179.002 48.9124C179.133 48.7163 179.395 48.7163 179.789 48.9124C180.248 49.0432 180.412 49.272 180.281 49.599C179.756 50.7758 178.969 52.2142 177.92 53.9142C176.87 55.6141 175.69 57.2814 174.378 58.9159C173.132 60.5505 171.787 61.9562 170.344 63.1331C168.901 64.2446 167.524 64.8004 166.212 64.8004C164.506 64.8004 163.358 64.1465 162.768 62.8389C162.243 61.5312 162.309 60.0274 162.965 58.3275C162.506 59.0467 161.948 59.7986 161.292 60.5832C160.636 61.3024 159.915 61.9889 159.128 62.6427C158.341 63.2966 157.488 63.8196 156.57 64.2119C155.717 64.6042 154.864 64.8004 154.012 64.8004C152.044 64.8004 150.601 64.2119 149.683 63.035C148.699 61.7928 148.207 60.289 148.207 58.5236C148.207 56.5622 148.568 54.4046 149.289 52.0508C150.011 49.697 151.027 47.5067 152.339 45.4799C153.717 43.453 155.291 41.7531 157.062 40.38C158.898 39.007 160.899 38.3205 163.063 38.3205C164.375 38.3205 165.523 38.8436 166.507 39.8897C167.491 40.8704 167.95 42.3415 167.884 44.303C168.409 43.3876 168.934 42.4723 169.458 41.5569C170.049 40.6416 170.541 39.7262 170.934 38.8109C170.934 38.6801 171.065 38.6147 171.328 38.6147C172.312 38.6147 173.23 39.0397 174.083 39.8897C174.935 40.7396 175.362 41.6223 175.362 42.5377C175.362 43.1915 175.034 44.2049 174.378 45.5779C173.787 46.951 173.132 48.3894 172.41 49.8932C171.689 51.3316 171 52.7373 170.344 54.1103C169.754 55.418 169.458 56.366 169.458 56.9545C169.458 57.2814 169.524 57.5756 169.655 57.8371C169.786 58.0987 170.049 58.2294 170.442 58.2294C171.426 58.2294 172.541 57.5756 173.787 56.268C175.099 54.8949 176.837 52.4431 179.002 48.9124ZM157.652 58.2294C158.374 58.2294 159.193 57.7717 160.112 56.8564C161.03 55.8757 161.915 54.6988 162.768 53.3257C163.621 51.9527 164.342 50.5143 164.933 49.0105C165.523 47.5067 165.818 46.2318 165.818 45.1856C165.818 43.6818 165.162 42.9299 163.85 42.9299C162.998 42.9299 162.079 43.4203 161.096 44.4011C160.177 45.3164 159.325 46.4279 158.538 47.7356C157.75 49.0432 157.095 50.4489 156.57 51.9527C156.045 53.3911 155.783 54.6661 155.783 55.7776C155.783 57.4121 156.406 58.2294 157.652 58.2294Z" fill="url(#paint4_linear_44_26)"/>
<path d="M141.877 58.1314C142.73 58.1314 143.845 57.4775 145.222 56.1699C146.665 54.7969 148.502 52.3777 150.732 48.9124C150.863 48.7163 151.093 48.6836 151.421 48.8144C151.814 48.9451 151.946 49.174 151.814 49.5009C151.29 50.6778 150.503 52.1489 149.453 53.9142C148.404 55.6795 147.223 57.3795 145.911 59.014C144.599 60.6486 143.222 62.0543 141.779 63.2312C140.336 64.3427 138.959 64.8657 137.647 64.8004C136.532 64.735 135.515 64.31 134.597 63.5254C133.679 62.7408 133.219 61.5312 133.219 59.8967C133.219 58.7198 133.482 57.4121 134.006 55.9737C134.597 54.5353 135.187 53.0969 135.777 51.6585C136.433 50.2201 137.024 48.8471 137.548 47.5394C138.139 46.2318 138.434 45.153 138.434 44.303C138.434 43.3876 137.975 42.9299 137.056 42.9299C136.335 42.9299 135.384 43.7145 134.203 45.2837C133.023 46.8529 131.842 48.6836 130.661 50.7758C129.481 52.8681 128.398 54.9276 127.415 56.9545C126.431 58.9159 125.808 60.3544 125.545 61.2697C125.48 61.662 125.414 62.0543 125.348 62.4466C125.348 62.7735 125.348 63.1004 125.348 63.4273C125.348 64.1465 124.922 64.5061 124.069 64.5061C122.233 64.5061 121.019 64.0811 120.429 63.2312C119.773 62.3812 119.445 61.1389 119.445 59.5044C119.445 58.1967 119.806 56.6276 120.528 54.7969C121.183 52.9661 121.971 51.1027 122.889 49.2067C123.873 47.2452 124.857 45.3491 125.84 43.5184C126.824 41.6223 127.579 40.0531 128.103 38.8109C128.169 38.6801 128.333 38.6147 128.595 38.6147C129.513 38.6147 130.399 39.0397 131.252 39.8897C132.104 40.7396 132.531 41.6223 132.531 42.5377C132.531 43.453 132.236 44.5972 131.645 45.9702C133.088 43.7472 134.498 41.9165 135.876 40.4781C137.319 39.0397 138.827 38.3205 140.402 38.3205C141.91 38.3205 143.025 38.8762 143.747 39.9877C144.534 41.0992 144.927 42.4396 144.927 44.0088C144.927 45.3818 144.731 46.7221 144.337 48.0298C143.943 49.3374 143.517 50.5797 143.058 51.7566C142.599 52.9335 142.173 54.0123 141.779 54.993C141.385 55.9737 141.189 56.7583 141.189 57.3468C141.189 57.8698 141.418 58.1314 141.877 58.1314Z" fill="url(#paint5_linear_44_26)"/>
<path d="M113.843 19C115.68 19 117.254 19.2942 118.566 19.8827C119.878 20.4057 120.96 21.1576 121.813 22.1384C122.665 23.1191 123.288 24.2306 123.682 25.4729C124.141 26.7151 124.371 28.0228 124.371 29.3958C124.371 31.1611 124.043 32.9591 123.387 34.7898C122.796 36.5552 121.944 38.1897 120.829 39.6935C119.779 41.1319 118.533 42.3088 117.09 43.2242C115.647 44.1395 114.138 44.5972 112.564 44.5972C111.252 44.5972 110.17 44.1395 109.318 43.2242C108.53 42.3088 108.301 41.0012 108.629 39.3012C109.744 39.2358 110.793 38.8435 111.777 38.1243C112.827 37.4051 113.745 36.5225 114.532 35.4764C115.319 34.4302 115.942 33.286 116.401 32.0438C116.926 30.8015 117.188 29.6246 117.188 28.5131C117.188 27.0747 116.86 26.0613 116.205 25.4729C115.614 24.819 114.86 24.4921 113.942 24.4921C112.695 24.4921 111.252 24.9171 109.613 25.7671C108.038 26.5517 106.53 27.6305 105.087 29.0035C103.644 30.3112 102.43 31.8149 101.447 33.5149C100.463 35.2148 99.9708 36.9148 99.9708 38.6147C99.9708 40.38 100.332 41.8838 101.053 43.1261C101.775 44.3684 102.693 45.4799 103.808 46.4606C104.923 47.3759 106.136 48.2586 107.448 49.1086C108.76 49.8932 109.973 50.7758 111.088 51.7566C112.204 52.6719 113.155 53.718 113.942 54.8949C114.729 56.0718 115.155 57.5429 115.221 59.3082C115.352 61.7928 114.762 64.0158 113.45 65.9772C112.138 67.8733 110.433 69.5079 108.334 70.8809C106.235 72.1886 103.906 73.202 101.348 73.9212C98.8558 74.6404 96.4289 75 94.0677 75C91.0505 75 88.9516 74.3789 87.771 73.1366C86.5903 71.829 86 70.3578 86 68.7233C86 67.7426 86.164 66.7618 86.4919 65.7811C86.8199 64.8004 87.2462 63.9177 87.771 63.1331C88.2957 62.2831 88.8532 61.6293 89.4435 61.1716C90.0994 60.6486 90.7225 60.387 91.3129 60.387C91.5096 60.387 91.5752 60.5178 91.5096 60.7793C91.5096 60.9755 91.5096 61.1389 91.5096 61.2697C91.1161 64.8657 92.6903 66.6637 96.2322 66.6637C97.4784 66.6637 98.823 66.533 100.266 66.2715C101.775 65.9445 103.152 65.4869 104.398 64.8984C105.644 64.2446 106.694 63.46 107.547 62.5447C108.399 61.5639 108.826 60.4197 108.826 59.1121C108.826 58.0006 108.432 57.0525 107.645 56.268C106.858 55.418 105.841 54.6007 104.595 53.8161C103.414 53.0315 102.135 52.2142 100.758 51.3643C99.3805 50.5143 98.0687 49.5009 96.8225 48.324C95.6418 47.1471 94.658 45.8068 93.8709 44.303C93.0838 42.7338 92.6903 40.8377 92.6903 38.6147C92.6903 36.1956 93.3462 33.8091 94.658 31.4553C95.9698 29.1016 97.6424 27.0093 99.6757 25.1786C101.709 23.3479 103.972 21.8768 106.464 20.7653C109.022 19.5884 111.482 19 113.843 19Z" fill="url(#paint6_linear_44_26)"/>
<defs>
<filter id="filter0_i_44_26" x="18" y="19" width="56" height="60" filterUnits="userSpaceOnUse" color-interpolation-filters="sRGB">
<feFlood flood-opacity="0" result="BackgroundImageFix"/>
<feBlend mode="normal" in="SourceGraphic" in2="BackgroundImageFix" result="shape"/>
<feColorMatrix in="SourceAlpha" type="matrix" values="0 0 0 0 0 0 0 0 0 0 0 0 0 0 0 0 0 0 127 0" result="hardAlpha"/>
<feOffset dy="4"/>
<feGaussianBlur stdDeviation="2"/>
<feComposite in2="hardAlpha" operator="arithmetic" k2="-1" k3="1"/>
<feColorMatrix type="matrix" values="0 0 0 0 0 0 0 0 0 0 0 0 0 0 0 0 0 0 0.25 0"/>
<feBlend mode="normal" in2="shape" result="effect1_innerShadow_44_26"/>
</filter>
<linearGradient id="paint0_linear_44_26" x1="34.3312" y1="29.3023" x2="65.5099" y2="56.164" gradientUnits="userSpaceOnUse">
<stop stop-color="#EF6C00"/>
<stop offset="0.857828" stop-color="#FFCA28"/>
</linearGradient>
<linearGradient id="paint1_linear_44_26" x1="20.8" y1="19.56" x2="71.76" y2="74.44" gradientUnits="userSpaceOnUse">
<stop stop-color="#EF6C00"/>
<stop offset="0.857828" stop-color="#FFCA28"/>
</linearGradient>
<linearGradient id="paint2_linear_44_26" x1="207.435" y1="22.5307" x2="210.15" y2="90.195" gradientUnits="userSpaceOnUse">
<stop stop-color="#F17604"/>
<stop offset="1" stop-color="#FFD800"/>
</linearGradient>
<linearGradient id="paint3_linear_44_26" x1="188.97" y1="38.3205" x2="190" y2="80.752" gradientUnits="userSpaceOnUse">
<stop stop-color="#F17604"/>
<stop offset="1" stop-color="#FFD800"/>
</linearGradient>
<linearGradient id="paint4_linear_44_26" x1="164.266" y1="38.3205" x2="165.05" y2="80.7625" gradientUnits="userSpaceOnUse">
<stop stop-color="#F17604"/>
<stop offset="1" stop-color="#FFD800"/>
</linearGradient>
<linearGradient id="paint5_linear_44_26" x1="135.654" y1="38.3205" x2="136.432" y2="80.7715" gradientUnits="userSpaceOnUse">
<stop stop-color="#F17604"/>
<stop offset="1" stop-color="#FFD800"/>
</linearGradient>
<linearGradient id="paint6_linear_44_26" x1="105.185" y1="19" x2="108.119" y2="108.692" gradientUnits="userSpaceOnUse">
<stop stop-color="#F17604"/>
<stop offset="1" stop-color="#FFD800"/>
</linearGradient>
</defs>
</svg>
